<svg width="430" height="350" viewBox="0 0 430 350" fill="none" xmlns="http://www.w3.org/2000/svg">
<rect x="22" y="4" width="35" height="35" rx="17.5" fill="#4CAF50"/>
<path d="M35.4836 27.5V26.438C36.3356 25.766 37.1396 25.088 37.8956 24.404C38.6636 23.708 39.3416 23.024 39.9296 22.352C40.5296 21.68 40.9976 21.02 41.3336 20.372C41.6816 19.724 41.8556 19.1 41.8556 18.5C41.8556 18.056 41.7776 17.642 41.6216 17.258C41.4776 16.874 41.2376 16.568 40.9016 16.34C40.5656 16.1 40.1096 15.98 39.5336 15.98C38.9816 15.98 38.5196 16.106 38.1476 16.358C37.7756 16.598 37.4936 16.922 37.3016 17.33C37.1216 17.738 37.0316 18.176 37.0316 18.644H35.5736C35.5736 17.816 35.7476 17.108 36.0956 16.52C36.4436 15.92 36.9176 15.464 37.5176 15.152C38.1176 14.84 38.7956 14.684 39.5516 14.684C40.6676 14.684 41.5796 15.002 42.2876 15.638C43.0076 16.262 43.3676 17.198 43.3676 18.446C43.3676 19.19 43.1816 19.928 42.8096 20.66C42.4376 21.38 41.9636 22.082 41.3876 22.766C40.8116 23.438 40.1936 24.068 39.5336 24.656C38.8856 25.244 38.2796 25.772 37.7156 26.24H43.7996V27.5H35.4836Z" fill="white"/>
<g clip-path="url(#clip0_19_677)">
<rect x="80.5" y="4" width="35" height="35" rx="17.5" fill="#4CAF50"/>
<path d="M97.965 27.716C97.161 27.716 96.435 27.572 95.787 27.284C95.139 26.984 94.617 26.54 94.221 25.952C93.837 25.364 93.633 24.632 93.609 23.756H95.139C95.151 24.476 95.403 25.1 95.895 25.628C96.387 26.144 97.077 26.402 97.965 26.402C98.853 26.402 99.519 26.156 99.963 25.664C100.419 25.172 100.647 24.578 100.647 23.882C100.647 23.294 100.503 22.814 100.215 22.442C99.939 22.07 99.561 21.794 99.081 21.614C98.613 21.434 98.097 21.344 97.533 21.344H96.597V20.066H97.533C98.349 20.066 98.985 19.88 99.441 19.508C99.909 19.136 100.143 18.614 100.143 17.942C100.143 17.378 99.957 16.916 99.585 16.556C99.225 16.184 98.685 15.998 97.965 15.998C97.269 15.998 96.711 16.208 96.291 16.628C95.871 17.036 95.637 17.552 95.589 18.176H94.059C94.095 17.492 94.275 16.886 94.599 16.358C94.935 15.83 95.391 15.422 95.967 15.134C96.543 14.834 97.209 14.684 97.965 14.684C98.781 14.684 99.459 14.828 99.999 15.116C100.551 15.404 100.965 15.788 101.241 16.268C101.529 16.748 101.673 17.276 101.673 17.852C101.673 18.488 101.499 19.07 101.151 19.598C100.803 20.114 100.281 20.462 99.585 20.642C100.329 20.798 100.947 21.152 101.439 21.704C101.931 22.256 102.177 22.982 102.177 23.882C102.177 24.578 102.015 25.22 101.691 25.808C101.379 26.384 100.911 26.846 100.287 27.194C99.663 27.542 98.889 27.716 97.965 27.716Z" fill="white"/>
</g>
<rect x="139" y="4" width="35" height="35" rx="17.5" fill="#4CAF50" fill-opacity="0.8"/>
<path d="M158.089 27.5V24.8H151.699V23.63L157.819 14.9H159.583V23.468H161.455V24.8H159.583V27.5H158.089ZM153.373 23.468H158.161V16.574L153.373 23.468Z" fill="white"/>
<g clip-path="url(#clip1_19_677)">
<rect x="197.5" y="4" width="35" height="35" rx="17.5" fill="#4CAF50" fill-opacity="0.6"/>
<path d="M215.105 27.716C214.241 27.716 213.491 27.56 212.855 27.248C212.219 26.936 211.709 26.51 211.325 25.97C210.953 25.418 210.725 24.794 210.641 24.098H212.117C212.261 24.794 212.597 25.358 213.125 25.79C213.653 26.21 214.319 26.42 215.123 26.42C215.723 26.42 216.239 26.282 216.671 26.006C217.103 25.718 217.433 25.334 217.661 24.854C217.901 24.374 218.021 23.84 218.021 23.252C218.021 22.316 217.757 21.56 217.229 20.984C216.701 20.408 216.017 20.12 215.177 20.12C214.481 20.12 213.887 20.276 213.395 20.588C212.903 20.9 212.543 21.308 212.315 21.812H210.875L211.955 14.9H218.561V16.214H213.125L212.387 20.048C212.675 19.7 213.071 19.412 213.575 19.184C214.091 18.956 214.679 18.842 215.339 18.842C216.167 18.842 216.887 19.034 217.499 19.418C218.123 19.802 218.609 20.324 218.957 20.984C219.305 21.644 219.479 22.394 219.479 23.234C219.479 24.038 219.305 24.782 218.957 25.466C218.621 26.15 218.123 26.696 217.463 27.104C216.815 27.512 216.029 27.716 215.105 27.716Z" fill="white"/>
</g>
<rect x="256" y="4" width="35" height="35" rx="17.5" fill="#4CAF50" fill-opacity="0.4"/>
<path d="M273.699 27.716C272.787 27.716 272.019 27.548 271.395 27.212C270.771 26.864 270.267 26.402 269.883 25.826C269.511 25.25 269.235 24.608 269.055 23.9C268.887 23.18 268.803 22.448 268.803 21.704C268.803 20.312 268.995 19.094 269.379 18.05C269.763 16.994 270.315 16.172 271.035 15.584C271.767 14.984 272.649 14.684 273.681 14.684C274.473 14.684 275.151 14.84 275.715 15.152C276.279 15.464 276.723 15.884 277.047 16.412C277.383 16.928 277.593 17.504 277.677 18.14H276.273C276.141 17.456 275.847 16.928 275.391 16.556C274.935 16.184 274.359 15.998 273.663 15.998C272.715 15.998 271.917 16.448 271.269 17.348C270.633 18.236 270.291 19.628 270.243 21.524C270.531 20.96 270.987 20.474 271.611 20.066C272.247 19.646 273.009 19.436 273.897 19.436C274.617 19.436 275.289 19.604 275.913 19.94C276.549 20.276 277.065 20.75 277.461 21.362C277.857 21.962 278.055 22.67 278.055 23.486C278.055 24.194 277.881 24.872 277.533 25.52C277.185 26.168 276.681 26.696 276.021 27.104C275.373 27.512 274.599 27.716 273.699 27.716ZM273.591 26.384C274.155 26.384 274.659 26.264 275.103 26.024C275.547 25.784 275.895 25.454 276.147 25.034C276.399 24.602 276.525 24.11 276.525 23.558C276.525 22.706 276.243 22.028 275.679 21.524C275.127 21.008 274.431 20.75 273.591 20.75C273.027 20.75 272.523 20.882 272.079 21.146C271.635 21.398 271.281 21.74 271.017 22.172C270.765 22.604 270.639 23.072 270.639 23.576C270.639 24.116 270.765 24.602 271.017 25.034C271.281 25.454 271.635 25.784 272.079 26.024C272.523 26.264 273.027 26.384 273.591 26.384Z" fill="white"/>
<g clip-path="url(#clip2_19_677)">
<rect x="314.5" y="4" width="35" height="35" rx="17.5" fill="#BA0000"/>
<path d="M329.577 27.5L334.581 16.196H327.669V14.9H336.129V16.034L331.179 27.5H329.577Z" fill="white"/>
</g>
<rect x="373" y="4" width="35" height="35" rx="17.5" fill="#BA0000" fill-opacity="0.4"/>
<path d="M390.497 27.716C389.669 27.716 388.925 27.566 388.265 27.266C387.605 26.954 387.083 26.528 386.699 25.988C386.327 25.436 386.141 24.8 386.141 24.08C386.141 23.312 386.363 22.622 386.807 22.01C387.263 21.398 387.863 20.99 388.607 20.786C387.923 20.558 387.395 20.192 387.023 19.688C386.651 19.184 386.465 18.632 386.465 18.032C386.465 17.42 386.627 16.862 386.951 16.358C387.275 15.842 387.737 15.434 388.337 15.134C388.937 14.834 389.657 14.684 390.497 14.684C391.337 14.684 392.057 14.834 392.657 15.134C393.257 15.434 393.719 15.842 394.043 16.358C394.367 16.862 394.529 17.42 394.529 18.032C394.529 18.62 394.343 19.172 393.971 19.688C393.599 20.192 393.071 20.558 392.387 20.786C393.131 20.99 393.725 21.398 394.169 22.01C394.625 22.622 394.853 23.312 394.853 24.08C394.853 24.8 394.661 25.436 394.277 25.988C393.905 26.528 393.389 26.954 392.729 27.266C392.069 27.566 391.325 27.716 390.497 27.716ZM390.497 20.246C391.265 20.246 391.871 20.054 392.315 19.67C392.771 19.274 392.999 18.758 392.999 18.122C392.999 17.414 392.777 16.88 392.333 16.52C391.889 16.16 391.277 15.98 390.497 15.98C389.717 15.98 389.105 16.16 388.661 16.52C388.229 16.88 388.013 17.414 388.013 18.122C388.013 18.758 388.235 19.274 388.679 19.67C389.123 20.054 389.729 20.246 390.497 20.246ZM390.497 26.384C391.445 26.384 392.153 26.168 392.621 25.736C393.101 25.292 393.341 24.71 393.341 23.99C393.341 23.174 393.083 22.556 392.567 22.136C392.051 21.716 391.361 21.506 390.497 21.506C389.633 21.506 388.943 21.716 388.427 22.136C387.911 22.556 387.653 23.174 387.653 23.99C387.653 24.71 387.887 25.292 388.355 25.736C388.835 26.168 389.549 26.384 390.497 26.384Z" fill="white"/>
<rect y="69.335" width="430" height="0.33" fill="#464649"/>
<rect x="22" y="74" width="35" height="35" rx="17.5" fill="#BA0000" fill-opacity="0.4"/>
<path d="M39.3211 97.716C38.5291 97.716 37.8511 97.56 37.2871 97.248C36.7231 96.936 36.2731 96.522 35.9371 96.006C35.6131 95.478 35.4151 94.896 35.3431 94.26H36.7471C36.8671 94.944 37.1551 95.472 37.6111 95.844C38.0671 96.216 38.6431 96.402 39.3391 96.402C40.2991 96.402 41.0971 95.958 41.7331 95.07C42.3691 94.17 42.7111 92.772 42.7591 90.876C42.4711 91.44 42.0091 91.932 41.3731 92.352C40.7491 92.76 39.9931 92.964 39.1051 92.964C38.3971 92.964 37.7251 92.796 37.0891 92.46C36.4531 92.124 35.9371 91.656 35.5411 91.056C35.1451 90.444 34.9471 89.73 34.9471 88.914C34.9471 88.206 35.1211 87.528 35.4691 86.88C35.8291 86.232 36.3331 85.704 36.9811 85.296C37.6291 84.888 38.4031 84.684 39.3031 84.684C40.2151 84.684 40.9831 84.858 41.6071 85.206C42.2311 85.542 42.7291 85.998 43.1011 86.574C43.4851 87.15 43.7611 87.798 43.9291 88.518C44.1091 89.226 44.1991 89.952 44.1991 90.696C44.1991 92.088 44.0071 93.312 43.6231 94.368C43.2391 95.412 42.6811 96.234 41.9491 96.834C41.2291 97.422 40.3531 97.716 39.3211 97.716ZM39.4111 91.65C39.9751 91.65 40.4791 91.524 40.9231 91.272C41.3671 91.008 41.7211 90.66 41.9851 90.228C42.2491 89.796 42.3811 89.328 42.3811 88.824C42.3811 88.284 42.2491 87.804 41.9851 87.384C41.7211 86.952 41.3671 86.616 40.9231 86.376C40.4791 86.136 39.9751 86.016 39.4111 86.016C38.8471 86.016 38.3431 86.136 37.8991 86.376C37.4551 86.616 37.1071 86.952 36.8551 87.384C36.6031 87.804 36.4771 88.29 36.4771 88.842C36.4771 89.694 36.7531 90.378 37.3051 90.894C37.8691 91.398 38.5711 91.65 39.4111 91.65Z" fill="white"/>
<g clip-path="url(#clip3_19_677)">
<rect x="80.5" y="74" width="35" height="35" rx="17.5" fill="#BA0000" fill-opacity="0.8"/>
<path d="M91.8679 97.5V86.592L89.8339 87.042V85.998L92.3719 84.9H93.3979V97.5H91.8679ZM100.472 97.716C99.3556 97.716 98.3896 97.446 97.5736 96.906C96.7696 96.354 96.1516 95.592 95.7196 94.62C95.2876 93.636 95.0716 92.496 95.0716 91.2C95.0716 89.904 95.2876 88.77 95.7196 87.798C96.1516 86.814 96.7696 86.052 97.5736 85.512C98.3896 84.96 99.3556 84.684 100.472 84.684C101.588 84.684 102.548 84.96 103.352 85.512C104.156 86.052 104.774 86.814 105.206 87.798C105.638 88.77 105.854 89.904 105.854 91.2C105.854 92.496 105.638 93.636 105.206 94.62C104.774 95.592 104.156 96.354 103.352 96.906C102.548 97.446 101.588 97.716 100.472 97.716ZM100.472 96.384C101.204 96.384 101.858 96.18 102.434 95.772C103.022 95.352 103.478 94.758 103.802 93.99C104.138 93.21 104.306 92.28 104.306 91.2C104.306 90.12 104.138 89.196 103.802 88.428C103.478 87.66 103.022 87.072 102.434 86.664C101.858 86.244 101.204 86.034 100.472 86.034C99.7276 86.034 99.0676 86.244 98.4916 86.664C97.9156 87.072 97.4596 87.66 97.1236 88.428C96.7876 89.196 96.6196 90.12 96.6196 91.2C96.6196 92.28 96.7876 93.21 97.1236 93.99C97.4596 94.758 97.9156 95.352 98.4916 95.772C99.0676 96.18 99.7276 96.384 100.472 96.384Z" fill="white"/>
</g>
<rect x="139" y="74" width="35" height="35" rx="17.5" fill="#BA0000"/>
<path d="M153.892 97.5V86.592L151.858 87.042V85.998L154.396 84.9H155.422V97.5H153.892ZM158.824 97.5V86.592L156.79 87.042V85.998L159.328 84.9H160.354V97.5H158.824Z" fill="white"/>
<g clip-path="url(#clip4_19_677)">
<rect x="197.5" y="74" width="35" height="35" rx="17.5" fill="#4CAF50" fill-opacity="0.2"/>
<path d="M209.958 97.5V86.592L207.924 87.042V85.998L210.462 84.9H211.488V97.5H209.958ZM213.449 97.5V96.438C214.301 95.766 215.105 95.088 215.861 94.404C216.629 93.708 217.307 93.024 217.895 92.352C218.495 91.68 218.963 91.02 219.299 90.372C219.647 89.724 219.821 89.1 219.821 88.5C219.821 88.056 219.743 87.642 219.587 87.258C219.443 86.874 219.203 86.568 218.867 86.34C218.531 86.1 218.075 85.98 217.499 85.98C216.947 85.98 216.485 86.106 216.113 86.358C215.741 86.598 215.459 86.922 215.267 87.33C215.087 87.738 214.997 88.176 214.997 88.644H213.539C213.539 87.816 213.713 87.108 214.061 86.52C214.409 85.92 214.883 85.464 215.483 85.152C216.083 84.84 216.761 84.684 217.517 84.684C218.633 84.684 219.545 85.002 220.253 85.638C220.973 86.262 221.333 87.198 221.333 88.446C221.333 89.19 221.147 89.928 220.775 90.66C220.403 91.38 219.929 92.082 219.353 92.766C218.777 93.438 218.159 94.068 217.499 94.656C216.851 95.244 216.245 95.772 215.681 96.24H221.765V97.5H213.449Z" fill="white"/>
</g>
<rect x="256" y="74" width="35" height="35" rx="17.5" fill="#4CAF50" fill-opacity="0.6"/>
<path d="M268.317 97.5V86.592L266.283 87.042V85.998L268.821 84.9H269.847V97.5H268.317ZM275.931 97.716C275.127 97.716 274.401 97.572 273.753 97.284C273.105 96.984 272.583 96.54 272.187 95.952C271.803 95.364 271.599 94.632 271.575 93.756H273.105C273.117 94.476 273.369 95.1 273.861 95.628C274.353 96.144 275.043 96.402 275.931 96.402C276.819 96.402 277.485 96.156 277.929 95.664C278.385 95.172 278.613 94.578 278.613 93.882C278.613 93.294 278.469 92.814 278.181 92.442C277.905 92.07 277.527 91.794 277.047 91.614C276.579 91.434 276.063 91.344 275.499 91.344H274.563V90.066H275.499C276.315 90.066 276.951 89.88 277.407 89.508C277.875 89.136 278.109 88.614 278.109 87.942C278.109 87.378 277.923 86.916 277.551 86.556C277.191 86.184 276.651 85.998 275.931 85.998C275.235 85.998 274.677 86.208 274.257 86.628C273.837 87.036 273.603 87.552 273.555 88.176H272.025C272.061 87.492 272.241 86.886 272.565 86.358C272.901 85.83 273.357 85.422 273.933 85.134C274.509 84.834 275.175 84.684 275.931 84.684C276.747 84.684 277.425 84.828 277.965 85.116C278.517 85.404 278.931 85.788 279.207 86.268C279.495 86.748 279.639 87.276 279.639 87.852C279.639 88.488 279.465 89.07 279.117 89.598C278.769 90.114 278.247 90.462 277.551 90.642C278.295 90.798 278.913 91.152 279.405 91.704C279.897 92.256 280.143 92.982 280.143 93.882C280.143 94.578 279.981 95.22 279.657 95.808C279.345 96.384 278.877 96.846 278.253 97.194C277.629 97.542 276.855 97.716 275.931 97.716Z" fill="white"/>
<g clip-path="url(#clip5_19_677)">
<rect x="314.5" y="74" width="35" height="35" rx="17.5" fill="#4CAF50"/>
<path d="M326.659 97.5V86.592L324.625 87.042V85.998L327.163 84.9H328.189V97.5H326.659ZM336.055 97.5V94.8H329.665V93.63L335.785 84.9H337.549V93.468H339.421V94.8H337.549V97.5H336.055ZM331.339 93.468H336.127V86.574L331.339 93.468Z" fill="white"/>
</g>
<rect x="373" y="74" width="35" height="35" rx="17.5" fill="#39743C"/>
<path d="M385.097 97.5V86.592L383.063 87.042V85.998L385.601 84.9H386.627V97.5H385.097ZM393.071 97.716C392.207 97.716 391.457 97.56 390.821 97.248C390.185 96.936 389.675 96.51 389.291 95.97C388.919 95.418 388.691 94.794 388.607 94.098H390.083C390.227 94.794 390.563 95.358 391.091 95.79C391.619 96.21 392.285 96.42 393.089 96.42C393.689 96.42 394.205 96.282 394.637 96.006C395.069 95.718 395.399 95.334 395.627 94.854C395.867 94.374 395.987 93.84 395.987 93.252C395.987 92.316 395.723 91.56 395.195 90.984C394.667 90.408 393.983 90.12 393.143 90.12C392.447 90.12 391.853 90.276 391.361 90.588C390.869 90.9 390.509 91.308 390.281 91.812H388.841L389.921 84.9H396.527V86.214H391.091L390.353 90.048C390.641 89.7 391.037 89.412 391.541 89.184C392.057 88.956 392.645 88.842 393.305 88.842C394.133 88.842 394.853 89.034 395.465 89.418C396.089 89.802 396.575 90.324 396.923 90.984C397.271 91.644 397.445 92.394 397.445 93.234C397.445 94.038 397.271 94.782 396.923 95.466C396.587 96.15 396.089 96.696 395.429 97.104C394.781 97.512 393.995 97.716 393.071 97.716Z" fill="white"/>
<rect y="139.335" width="430" height="0.33" fill="#464649"/>
<rect x="22" y="144" width="35" height="35" rx="17.5" fill="#BA0000"/>
<path d="M33.9392 167.5V156.592L31.9052 157.042V155.998L34.4432 154.9H35.4692V167.5H33.9392ZM42.1649 167.716C41.2529 167.716 40.4849 167.548 39.8609 167.212C39.2369 166.864 38.7329 166.402 38.3489 165.826C37.9769 165.25 37.7009 164.608 37.5209 163.9C37.3529 163.18 37.2689 162.448 37.2689 161.704C37.2689 160.312 37.4609 159.094 37.8449 158.05C38.2289 156.994 38.7809 156.172 39.5009 155.584C40.2329 154.984 41.1149 154.684 42.1469 154.684C42.9389 154.684 43.6169 154.84 44.1809 155.152C44.7449 155.464 45.1889 155.884 45.5129 156.412C45.8489 156.928 46.0589 157.504 46.1429 158.14H44.7389C44.6069 157.456 44.3129 156.928 43.8569 156.556C43.4009 156.184 42.8249 155.998 42.1289 155.998C41.1809 155.998 40.3829 156.448 39.7349 157.348C39.0989 158.236 38.7569 159.628 38.7089 161.524C38.9969 160.96 39.4529 160.474 40.0769 160.066C40.7129 159.646 41.4749 159.436 42.3629 159.436C43.0829 159.436 43.7549 159.604 44.3789 159.94C45.0149 160.276 45.5309 160.75 45.9269 161.362C46.3229 161.962 46.5209 162.67 46.5209 163.486C46.5209 164.194 46.3469 164.872 45.9989 165.52C45.6509 166.168 45.1469 166.696 44.4869 167.104C43.8389 167.512 43.0649 167.716 42.1649 167.716ZM42.0569 166.384C42.6209 166.384 43.1249 166.264 43.5689 166.024C44.0129 165.784 44.3609 165.454 44.6129 165.034C44.8649 164.602 44.9909 164.11 44.9909 163.558C44.9909 162.706 44.7089 162.028 44.1449 161.524C43.5929 161.008 42.8969 160.75 42.0569 160.75C41.4929 160.75 40.9889 160.882 40.5449 161.146C40.1009 161.398 39.7469 161.74 39.4829 162.172C39.2309 162.604 39.1049 163.072 39.1049 163.576C39.1049 164.116 39.2309 164.602 39.4829 165.034C39.7469 165.454 40.1009 165.784 40.5449 166.024C40.9889 166.264 41.4929 166.384 42.0569 166.384Z" fill="white"/>
<g clip-path="url(#clip6_19_677)">
<rect x="80.5" y="144" width="35" height="35" rx="17.5" fill="#BA0000" fill-opacity="0.6"/>
<path d="M93.3094 167.5V156.592L91.2754 157.042V155.998L93.8134 154.9H94.8394V167.5H93.3094ZM98.043 167.5L103.047 156.196H96.135V154.9H104.595V156.034L99.645 167.5H98.043Z" fill="white"/>
</g>
<rect x="139" y="144" width="35" height="35" rx="17.5" fill="#263928"/>
<path d="M151.115 167.5V156.592L149.081 157.042V155.998L151.619 154.9H152.645V167.5H151.115ZM158.963 167.716C158.135 167.716 157.391 167.566 156.731 167.266C156.071 166.954 155.549 166.528 155.165 165.988C154.793 165.436 154.607 164.8 154.607 164.08C154.607 163.312 154.829 162.622 155.273 162.01C155.729 161.398 156.329 160.99 157.073 160.786C156.389 160.558 155.861 160.192 155.489 159.688C155.117 159.184 154.931 158.632 154.931 158.032C154.931 157.42 155.093 156.862 155.417 156.358C155.741 155.842 156.203 155.434 156.803 155.134C157.403 154.834 158.123 154.684 158.963 154.684C159.803 154.684 160.523 154.834 161.123 155.134C161.723 155.434 162.185 155.842 162.509 156.358C162.833 156.862 162.995 157.42 162.995 158.032C162.995 158.62 162.809 159.172 162.437 159.688C162.065 160.192 161.537 160.558 160.853 160.786C161.597 160.99 162.191 161.398 162.635 162.01C163.091 162.622 163.319 163.312 163.319 164.08C163.319 164.8 163.127 165.436 162.743 165.988C162.371 166.528 161.855 166.954 161.195 167.266C160.535 167.566 159.791 167.716 158.963 167.716ZM158.963 160.246C159.731 160.246 160.337 160.054 160.781 159.67C161.237 159.274 161.465 158.758 161.465 158.122C161.465 157.414 161.243 156.88 160.799 156.52C160.355 156.16 159.743 155.98 158.963 155.98C158.183 155.98 157.571 156.16 157.127 156.52C156.695 156.88 156.479 157.414 156.479 158.122C156.479 158.758 156.701 159.274 157.145 159.67C157.589 160.054 158.195 160.246 158.963 160.246ZM158.963 166.384C159.911 166.384 160.619 166.168 161.087 165.736C161.567 165.292 161.807 164.71 161.807 163.99C161.807 163.174 161.549 162.556 161.033 162.136C160.517 161.716 159.827 161.506 158.963 161.506C158.099 161.506 157.409 161.716 156.893 162.136C156.377 162.556 156.119 163.174 156.119 163.99C156.119 164.71 156.353 165.292 156.821 165.736C157.301 166.168 158.015 166.384 158.963 166.384Z" fill="white"/>
<g clip-path="url(#clip7_19_677)">
<rect x="197.5" y="144" width="35" height="35" rx="17.5" fill="#4CAF50"/>
<path d="M209.439 167.5V156.592L207.405 157.042V155.998L209.943 154.9H210.969V167.5H209.439ZM217.287 167.716C216.495 167.716 215.817 167.56 215.253 167.248C214.689 166.936 214.239 166.522 213.903 166.006C213.579 165.478 213.381 164.896 213.309 164.26H214.713C214.833 164.944 215.121 165.472 215.577 165.844C216.033 166.216 216.609 166.402 217.305 166.402C218.265 166.402 219.063 165.958 219.699 165.07C220.335 164.17 220.677 162.772 220.725 160.876C220.437 161.44 219.975 161.932 219.339 162.352C218.715 162.76 217.959 162.964 217.071 162.964C216.363 162.964 215.691 162.796 215.055 162.46C214.419 162.124 213.903 161.656 213.507 161.056C213.111 160.444 212.913 159.73 212.913 158.914C212.913 158.206 213.087 157.528 213.435 156.88C213.795 156.232 214.299 155.704 214.947 155.296C215.595 154.888 216.369 154.684 217.269 154.684C218.181 154.684 218.949 154.858 219.573 155.206C220.197 155.542 220.695 155.998 221.067 156.574C221.451 157.15 221.727 157.798 221.895 158.518C222.075 159.226 222.165 159.952 222.165 160.696C222.165 162.088 221.973 163.312 221.589 164.368C221.205 165.412 220.647 166.234 219.915 166.834C219.195 167.422 218.319 167.716 217.287 167.716ZM217.377 161.65C217.941 161.65 218.445 161.524 218.889 161.272C219.333 161.008 219.687 160.66 219.951 160.228C220.215 159.796 220.347 159.328 220.347 158.824C220.347 158.284 220.215 157.804 219.951 157.384C219.687 156.952 219.333 156.616 218.889 156.376C218.445 156.136 217.941 156.016 217.377 156.016C216.813 156.016 216.309 156.136 215.865 156.376C215.421 156.616 215.073 156.952 214.821 157.384C214.569 157.804 214.443 158.29 214.443 158.842C214.443 159.694 214.719 160.378 215.271 160.894C215.835 161.398 216.537 161.65 217.377 161.65Z" fill="white"/>
</g>
<rect x="256" y="144" width="35" height="35" rx="17.5" fill="#4CAF50"/>
<path d="M263.581 167.5V166.438C264.433 165.766 265.237 165.088 265.993 164.404C266.761 163.708 267.439 163.024 268.027 162.352C268.627 161.68 269.095 161.02 269.431 160.372C269.779 159.724 269.953 159.1 269.953 158.5C269.953 158.056 269.875 157.642 269.719 157.258C269.575 156.874 269.335 156.568 268.999 156.34C268.663 156.1 268.207 155.98 267.631 155.98C267.079 155.98 266.617 156.106 266.245 156.358C265.873 156.598 265.591 156.922 265.399 157.33C265.219 157.738 265.129 158.176 265.129 158.644H263.671C263.671 157.816 263.845 157.108 264.193 156.52C264.541 155.92 265.015 155.464 265.615 155.152C266.215 154.84 266.893 154.684 267.649 154.684C268.765 154.684 269.677 155.002 270.385 155.638C271.105 156.262 271.465 157.198 271.465 158.446C271.465 159.19 271.279 159.928 270.907 160.66C270.535 161.38 270.061 162.082 269.485 162.766C268.909 163.438 268.291 164.068 267.631 164.656C266.983 165.244 266.377 165.772 265.813 166.24H271.897V167.5H263.581ZM278.318 167.716C277.202 167.716 276.236 167.446 275.42 166.906C274.616 166.354 273.998 165.592 273.566 164.62C273.134 163.636 272.918 162.496 272.918 161.2C272.918 159.904 273.134 158.77 273.566 157.798C273.998 156.814 274.616 156.052 275.42 155.512C276.236 154.96 277.202 154.684 278.318 154.684C279.434 154.684 280.394 154.96 281.198 155.512C282.002 156.052 282.62 156.814 283.052 157.798C283.484 158.77 283.7 159.904 283.7 161.2C283.7 162.496 283.484 163.636 283.052 164.62C282.62 165.592 282.002 166.354 281.198 166.906C280.394 167.446 279.434 167.716 278.318 167.716ZM278.318 166.384C279.05 166.384 279.704 166.18 280.28 165.772C280.868 165.352 281.324 164.758 281.648 163.99C281.984 163.21 282.152 162.28 282.152 161.2C282.152 160.12 281.984 159.196 281.648 158.428C281.324 157.66 280.868 157.072 280.28 156.664C279.704 156.244 279.05 156.034 278.318 156.034C277.574 156.034 276.914 156.244 276.338 156.664C275.762 157.072 275.306 157.66 274.97 158.428C274.634 159.196 274.466 160.12 274.466 161.2C274.466 162.28 274.634 163.21 274.97 163.99C275.306 164.758 275.762 165.352 276.338 165.772C276.914 166.18 277.574 166.384 278.318 166.384Z" fill="white"/>
<g clip-path="url(#clip8_19_677)">
<rect x="314.5" y="144" width="35" height="35" rx="17.5" fill="#BA0000"/>
<path d="M325.518 167.5V166.438C326.37 165.766 327.174 165.088 327.93 164.404C328.698 163.708 329.376 163.024 329.964 162.352C330.564 161.68 331.032 161.02 331.368 160.372C331.716 159.724 331.89 159.1 331.89 158.5C331.89 158.056 331.812 157.642 331.656 157.258C331.512 156.874 331.272 156.568 330.936 156.34C330.6 156.1 330.144 155.98 329.568 155.98C329.016 155.98 328.554 156.106 328.182 156.358C327.81 156.598 327.528 156.922 327.336 157.33C327.156 157.738 327.066 158.176 327.066 158.644H325.608C325.608 157.816 325.782 157.108 326.13 156.52C326.478 155.92 326.952 155.464 327.552 155.152C328.152 154.84 328.83 154.684 329.586 154.684C330.702 154.684 331.614 155.002 332.322 155.638C333.042 156.262 333.402 157.198 333.402 158.446C333.402 159.19 333.216 159.928 332.844 160.66C332.472 161.38 331.998 162.082 331.422 162.766C330.846 163.438 330.228 164.068 329.568 164.656C328.92 165.244 328.314 165.772 327.75 166.24H333.834V167.5H325.518ZM336.759 167.5V156.592L334.725 157.042V155.998L337.263 154.9H338.289V167.5H336.759Z" fill="white"/>
</g>
<rect x="373" y="144" width="35" height="35" rx="17.5" fill="#429246"/>
<path d="M381.583 167.5V166.438C382.435 165.766 383.239 165.088 383.995 164.404C384.763 163.708 385.441 163.024 386.029 162.352C386.629 161.68 387.097 161.02 387.433 160.372C387.781 159.724 387.955 159.1 387.955 158.5C387.955 158.056 387.877 157.642 387.721 157.258C387.577 156.874 387.337 156.568 387.001 156.34C386.665 156.1 386.209 155.98 385.633 155.98C385.081 155.98 384.619 156.106 384.247 156.358C383.875 156.598 383.593 156.922 383.401 157.33C383.221 157.738 383.131 158.176 383.131 158.644H381.673C381.673 157.816 381.847 157.108 382.195 156.52C382.543 155.92 383.017 155.464 383.617 155.152C384.217 154.84 384.895 154.684 385.651 154.684C386.767 154.684 387.679 155.002 388.387 155.638C389.107 156.262 389.467 157.198 389.467 158.446C389.467 159.19 389.281 159.928 388.909 160.66C388.537 161.38 388.063 162.082 387.487 162.766C386.911 163.438 386.293 164.068 385.633 164.656C384.985 165.244 384.379 165.772 383.815 166.24H389.899V167.5H381.583ZM391.384 167.5V166.438C392.236 165.766 393.04 165.088 393.796 164.404C394.564 163.708 395.242 163.024 395.83 162.352C396.43 161.68 396.898 161.02 397.234 160.372C397.582 159.724 397.756 159.1 397.756 158.5C397.756 158.056 397.678 157.642 397.522 157.258C397.378 156.874 397.138 156.568 396.802 156.34C396.466 156.1 396.01 155.98 395.434 155.98C394.882 155.98 394.42 156.106 394.048 156.358C393.676 156.598 393.394 156.922 393.202 157.33C393.022 157.738 392.932 158.176 392.932 158.644H391.474C391.474 157.816 391.648 157.108 391.996 156.52C392.344 155.92 392.818 155.464 393.418 155.152C394.018 154.84 394.696 154.684 395.452 154.684C396.568 154.684 397.48 155.002 398.188 155.638C398.908 156.262 399.268 157.198 399.268 158.446C399.268 159.19 399.082 159.928 398.71 160.66C398.338 161.38 397.864 162.082 397.288 162.766C396.712 163.438 396.094 164.068 395.434 164.656C394.786 165.244 394.18 165.772 393.616 166.24H399.7V167.5H391.384Z" fill="white"/>
<rect y="209.335" width="430" height="0.33" fill="#464649"/>
<rect x="22" y="214" width="35" height="35" rx="17.5" fill="#263928"/>
<path d="M30.4426 237.5V236.438C31.2946 235.766 32.0986 235.088 32.8546 234.404C33.6226 233.708 34.3006 233.024 34.8886 232.352C35.4886 231.68 35.9566 231.02 36.2926 230.372C36.6406 229.724 36.8146 229.1 36.8146 228.5C36.8146 228.056 36.7366 227.642 36.5806 227.258C36.4366 226.874 36.1966 226.568 35.8606 226.34C35.5246 226.1 35.0686 225.98 34.4926 225.98C33.9406 225.98 33.4786 226.106 33.1066 226.358C32.7346 226.598 32.4526 226.922 32.2606 227.33C32.0806 227.738 31.9906 228.176 31.9906 228.644H30.5326C30.5326 227.816 30.7066 227.108 31.0546 226.52C31.4026 225.92 31.8766 225.464 32.4766 225.152C33.0766 224.84 33.7546 224.684 34.5106 224.684C35.6266 224.684 36.5386 225.002 37.2466 225.638C37.9666 226.262 38.3266 227.198 38.3266 228.446C38.3266 229.19 38.1406 229.928 37.7686 230.66C37.3966 231.38 36.9226 232.082 36.3466 232.766C35.7706 233.438 35.1526 234.068 34.4926 234.656C33.8446 235.244 33.2386 235.772 32.6746 236.24H38.7586V237.5H30.4426ZM44.3654 237.716C43.5614 237.716 42.8354 237.572 42.1874 237.284C41.5394 236.984 41.0174 236.54 40.6214 235.952C40.2374 235.364 40.0334 234.632 40.0094 233.756H41.5394C41.5514 234.476 41.8034 235.1 42.2954 235.628C42.7874 236.144 43.4774 236.402 44.3654 236.402C45.2534 236.402 45.9194 236.156 46.3634 235.664C46.8194 235.172 47.0474 234.578 47.0474 233.882C47.0474 233.294 46.9034 232.814 46.6154 232.442C46.3394 232.07 45.9614 231.794 45.4814 231.614C45.0134 231.434 44.4974 231.344 43.9334 231.344H42.9974V230.066H43.9334C44.7494 230.066 45.3854 229.88 45.8414 229.508C46.3094 229.136 46.5434 228.614 46.5434 227.942C46.5434 227.378 46.3574 226.916 45.9854 226.556C45.6254 226.184 45.0854 225.998 44.3654 225.998C43.6694 225.998 43.1114 226.208 42.6914 226.628C42.2714 227.036 42.0374 227.552 41.9894 228.176H40.4594C40.4954 227.492 40.6754 226.886 40.9994 226.358C41.3354 225.83 41.7914 225.422 42.3674 225.134C42.9434 224.834 43.6094 224.684 44.3654 224.684C45.1814 224.684 45.8594 224.828 46.3994 225.116C46.9514 225.404 47.3654 225.788 47.6414 226.268C47.9294 226.748 48.0734 227.276 48.0734 227.852C48.0734 228.488 47.8994 229.07 47.5514 229.598C47.2034 230.114 46.6814 230.462 45.9854 230.642C46.7294 230.798 47.3474 231.152 47.8394 231.704C48.3314 232.256 48.5774 232.982 48.5774 233.882C48.5774 234.578 48.4154 235.22 48.0914 235.808C47.7794 236.384 47.3114 236.846 46.6874 237.194C46.0634 237.542 45.2894 237.716 44.3654 237.716Z" fill="white"/>
<g clip-path="url(#clip9_19_677)">
<rect x="80.5" y="214" width="35" height="35" rx="17.5" fill="#BA0000"/>
<path d="M88.9338 237.5V236.438C89.7858 235.766 90.5898 235.088 91.3458 234.404C92.1138 233.708 92.7918 233.024 93.3798 232.352C93.9798 231.68 94.4478 231.02 94.7838 230.372C95.1318 229.724 95.3058 229.1 95.3058 228.5C95.3058 228.056 95.2278 227.642 95.0718 227.258C94.9278 226.874 94.6878 226.568 94.3518 226.34C94.0158 226.1 93.5598 225.98 92.9838 225.98C92.4318 225.98 91.9698 226.106 91.5978 226.358C91.2258 226.598 90.9438 226.922 90.7518 227.33C90.5718 227.738 90.4818 228.176 90.4818 228.644H89.0238C89.0238 227.816 89.1978 227.108 89.5458 226.52C89.8938 225.92 90.3678 225.464 90.9678 225.152C91.5678 224.84 92.2458 224.684 93.0018 224.684C94.1178 224.684 95.0298 225.002 95.7378 225.638C96.4578 226.262 96.8178 227.198 96.8178 228.446C96.8178 229.19 96.6318 229.928 96.2598 230.66C95.8878 231.38 95.4138 232.082 94.8378 232.766C94.2618 233.438 93.6438 234.068 92.9838 234.656C92.3358 235.244 91.7298 235.772 91.1658 236.24H97.2498V237.5H88.9338ZM104.34 237.5V234.8H97.9498V233.63L104.07 224.9H105.834V233.468H107.706V234.8H105.834V237.5H104.34ZM99.6238 233.468H104.412V226.574L99.6238 233.468Z" fill="white"/>
</g>
<rect x="139" y="214" width="35" height="35" rx="17.5" fill="#4CAF50"/>
<path d="M147.223 237.5V236.438C148.075 235.766 148.879 235.088 149.635 234.404C150.403 233.708 151.081 233.024 151.669 232.352C152.269 231.68 152.737 231.02 153.073 230.372C153.421 229.724 153.595 229.1 153.595 228.5C153.595 228.056 153.517 227.642 153.361 227.258C153.217 226.874 152.977 226.568 152.641 226.34C152.305 226.1 151.849 225.98 151.273 225.98C150.721 225.98 150.259 226.106 149.887 226.358C149.515 226.598 149.233 226.922 149.041 227.33C148.861 227.738 148.771 228.176 148.771 228.644H147.313C147.313 227.816 147.487 227.108 147.835 226.52C148.183 225.92 148.657 225.464 149.257 225.152C149.857 224.84 150.535 224.684 151.291 224.684C152.407 224.684 153.319 225.002 154.027 225.638C154.747 226.262 155.107 227.198 155.107 228.446C155.107 229.19 154.921 229.928 154.549 230.66C154.177 231.38 153.703 232.082 153.127 232.766C152.551 233.438 151.933 234.068 151.273 234.656C150.625 235.244 150.019 235.772 149.455 236.24H155.539V237.5H147.223ZM161.506 237.716C160.642 237.716 159.892 237.56 159.256 237.248C158.62 236.936 158.11 236.51 157.726 235.97C157.354 235.418 157.126 234.794 157.042 234.098H158.518C158.662 234.794 158.998 235.358 159.526 235.79C160.054 236.21 160.72 236.42 161.524 236.42C162.124 236.42 162.64 236.282 163.072 236.006C163.504 235.718 163.834 235.334 164.062 234.854C164.302 234.374 164.422 233.84 164.422 233.252C164.422 232.316 164.158 231.56 163.63 230.984C163.102 230.408 162.418 230.12 161.578 230.12C160.882 230.12 160.288 230.276 159.796 230.588C159.304 230.9 158.944 231.308 158.716 231.812H157.276L158.356 224.9H164.962V226.214H159.526L158.788 230.048C159.076 229.7 159.472 229.412 159.976 229.184C160.492 228.956 161.08 228.842 161.74 228.842C162.568 228.842 163.288 229.034 163.9 229.418C164.524 229.802 165.01 230.324 165.358 230.984C165.706 231.644 165.88 232.394 165.88 233.234C165.88 234.038 165.706 234.782 165.358 235.466C165.022 236.15 164.524 236.696 163.864 237.104C163.216 237.512 162.43 237.716 161.506 237.716Z" fill="white"/>
<g clip-path="url(#clip10_19_677)">
<rect x="197.5" y="214" width="35" height="35" rx="17.5" fill="#263928"/>
<path d="M205.565 237.5V236.438C206.417 235.766 207.221 235.088 207.977 234.404C208.745 233.708 209.423 233.024 210.011 232.352C210.611 231.68 211.079 231.02 211.415 230.372C211.763 229.724 211.937 229.1 211.937 228.5C211.937 228.056 211.859 227.642 211.703 227.258C211.559 226.874 211.319 226.568 210.983 226.34C210.647 226.1 210.191 225.98 209.615 225.98C209.063 225.98 208.601 226.106 208.229 226.358C207.857 226.598 207.575 226.922 207.383 227.33C207.203 227.738 207.113 228.176 207.113 228.644H205.655C205.655 227.816 205.829 227.108 206.177 226.52C206.525 225.92 206.999 225.464 207.599 225.152C208.199 224.84 208.877 224.684 209.633 224.684C210.749 224.684 211.661 225.002 212.369 225.638C213.089 226.262 213.449 227.198 213.449 228.446C213.449 229.19 213.263 229.928 212.891 230.66C212.519 231.38 212.045 232.082 211.469 232.766C210.893 233.438 210.275 234.068 209.615 234.656C208.967 235.244 208.361 235.772 207.797 236.24H213.881V237.5H205.565ZM220.099 237.716C219.187 237.716 218.419 237.548 217.795 237.212C217.171 236.864 216.667 236.402 216.283 235.826C215.911 235.25 215.635 234.608 215.455 233.9C215.287 233.18 215.203 232.448 215.203 231.704C215.203 230.312 215.395 229.094 215.779 228.05C216.163 226.994 216.715 226.172 217.435 225.584C218.167 224.984 219.049 224.684 220.081 224.684C220.873 224.684 221.551 224.84 222.115 225.152C222.679 225.464 223.123 225.884 223.447 226.412C223.783 226.928 223.993 227.504 224.077 228.14H222.673C222.541 227.456 222.247 226.928 221.791 226.556C221.335 226.184 220.759 225.998 220.063 225.998C219.115 225.998 218.317 226.448 217.669 227.348C217.033 228.236 216.691 229.628 216.643 231.524C216.931 230.96 217.387 230.474 218.011 230.066C218.647 229.646 219.409 229.436 220.297 229.436C221.017 229.436 221.689 229.604 222.313 229.94C222.949 230.276 223.465 230.75 223.861 231.362C224.257 231.962 224.455 232.67 224.455 233.486C224.455 234.194 224.281 234.872 223.933 235.52C223.585 236.168 223.081 236.696 222.421 237.104C221.773 237.512 220.999 237.716 220.099 237.716ZM219.991 236.384C220.555 236.384 221.059 236.264 221.503 236.024C221.947 235.784 222.295 235.454 222.547 235.034C222.799 234.602 222.925 234.11 222.925 233.558C222.925 232.706 222.643 232.028 222.079 231.524C221.527 231.008 220.831 230.75 219.991 230.75C219.427 230.75 218.923 230.882 218.479 231.146C218.035 231.398 217.681 231.74 217.417 232.172C217.165 232.604 217.039 233.072 217.039 233.576C217.039 234.116 217.165 234.602 217.417 235.034C217.681 235.454 218.035 235.784 218.479 236.024C218.923 236.264 219.427 236.384 219.991 236.384Z" fill="white"/>
</g>
<rect x="256" y="214" width="35" height="35" rx="17.5" fill="#263928"/>
<path d="M265.084 237.5V236.438C265.936 235.766 266.74 235.088 267.496 234.404C268.264 233.708 268.942 233.024 269.53 232.352C270.13 231.68 270.598 231.02 270.934 230.372C271.282 229.724 271.456 229.1 271.456 228.5C271.456 228.056 271.378 227.642 271.222 227.258C271.078 226.874 270.838 226.568 270.502 226.34C270.166 226.1 269.71 225.98 269.134 225.98C268.582 225.98 268.12 226.106 267.748 226.358C267.376 226.598 267.094 226.922 266.902 227.33C266.722 227.738 266.632 228.176 266.632 228.644H265.174C265.174 227.816 265.348 227.108 265.696 226.52C266.044 225.92 266.518 225.464 267.118 225.152C267.718 224.84 268.396 224.684 269.152 224.684C270.268 224.684 271.18 225.002 271.888 225.638C272.608 226.262 272.968 227.198 272.968 228.446C272.968 229.19 272.782 229.928 272.41 230.66C272.038 231.38 271.564 232.082 270.988 232.766C270.412 233.438 269.794 234.068 269.134 234.656C268.486 235.244 267.88 235.772 267.316 236.24H273.4V237.5H265.084ZM275.828 237.5L280.832 226.196H273.92V224.9H282.38V226.034L277.43 237.5H275.828Z" fill="white"/>
<g clip-path="url(#clip11_19_677)">
<rect x="314.5" y="214" width="35" height="35" rx="17.5" fill="#429246"/>
<path d="M322.89 237.5V236.438C323.742 235.766 324.546 235.088 325.302 234.404C326.07 233.708 326.748 233.024 327.336 232.352C327.936 231.68 328.404 231.02 328.74 230.372C329.088 229.724 329.262 229.1 329.262 228.5C329.262 228.056 329.184 227.642 329.028 227.258C328.884 226.874 328.644 226.568 328.308 226.34C327.972 226.1 327.516 225.98 326.94 225.98C326.388 225.98 325.926 226.106 325.554 226.358C325.182 226.598 324.9 226.922 324.708 227.33C324.528 227.738 324.438 228.176 324.438 228.644H322.98C322.98 227.816 323.154 227.108 323.502 226.52C323.85 225.92 324.324 225.464 324.924 225.152C325.524 224.84 326.202 224.684 326.958 224.684C328.074 224.684 328.986 225.002 329.694 225.638C330.414 226.262 330.774 227.198 330.774 228.446C330.774 229.19 330.588 229.928 330.216 230.66C329.844 231.38 329.37 232.082 328.794 232.766C328.218 233.438 327.6 234.068 326.94 234.656C326.292 235.244 325.686 235.772 325.122 236.24H331.206V237.5H322.89ZM336.748 237.716C335.92 237.716 335.176 237.566 334.516 237.266C333.856 236.954 333.334 236.528 332.95 235.988C332.578 235.436 332.392 234.8 332.392 234.08C332.392 233.312 332.614 232.622 333.058 232.01C333.514 231.398 334.114 230.99 334.858 230.786C334.174 230.558 333.646 230.192 333.274 229.688C332.902 229.184 332.716 228.632 332.716 228.032C332.716 227.42 332.878 226.862 333.202 226.358C333.526 225.842 333.988 225.434 334.588 225.134C335.188 224.834 335.908 224.684 336.748 224.684C337.588 224.684 338.308 224.834 338.908 225.134C339.508 225.434 339.97 225.842 340.294 226.358C340.618 226.862 340.78 227.42 340.78 228.032C340.78 228.62 340.594 229.172 340.222 229.688C339.85 230.192 339.322 230.558 338.638 230.786C339.382 230.99 339.976 231.398 340.42 232.01C340.876 232.622 341.104 233.312 341.104 234.08C341.104 234.8 340.912 235.436 340.528 235.988C340.156 236.528 339.64 236.954 338.98 237.266C338.32 237.566 337.576 237.716 336.748 237.716ZM336.748 230.246C337.516 230.246 338.122 230.054 338.566 229.67C339.022 229.274 339.25 228.758 339.25 228.122C339.25 227.414 339.028 226.88 338.584 226.52C338.14 226.16 337.528 225.98 336.748 225.98C335.968 225.98 335.356 226.16 334.912 226.52C334.48 226.88 334.264 227.414 334.264 228.122C334.264 228.758 334.486 229.274 334.93 229.67C335.374 230.054 335.98 230.246 336.748 230.246ZM336.748 236.384C337.696 236.384 338.404 236.168 338.872 235.736C339.352 235.292 339.592 234.71 339.592 233.99C339.592 233.174 339.334 232.556 338.818 232.136C338.302 231.716 337.612 231.506 336.748 231.506C335.884 231.506 335.194 231.716 334.678 232.136C334.162 232.556 333.904 233.174 333.904 233.99C333.904 234.71 334.138 235.292 334.606 235.736C335.086 236.168 335.8 236.384 336.748 236.384Z" fill="white"/>
</g>
<rect x="373" y="214" width="35" height="35" rx="17.5" fill="#BA0000"/>
<path d="M381.153 237.5V236.438C382.005 235.766 382.809 235.088 383.565 234.404C384.333 233.708 385.011 233.024 385.599 232.352C386.199 231.68 386.667 231.02 387.003 230.372C387.351 229.724 387.525 229.1 387.525 228.5C387.525 228.056 387.447 227.642 387.291 227.258C387.147 226.874 386.907 226.568 386.571 226.34C386.235 226.1 385.779 225.98 385.203 225.98C384.651 225.98 384.189 226.106 383.817 226.358C383.445 226.598 383.163 226.922 382.971 227.33C382.791 227.738 382.701 228.176 382.701 228.644H381.243C381.243 227.816 381.417 227.108 381.765 226.52C382.113 225.92 382.587 225.464 383.187 225.152C383.787 224.84 384.465 224.684 385.221 224.684C386.337 224.684 387.249 225.002 387.957 225.638C388.677 226.262 389.037 227.198 389.037 228.446C389.037 229.19 388.851 229.928 388.479 230.66C388.107 231.38 387.633 232.082 387.057 232.766C386.481 233.438 385.863 234.068 385.203 234.656C384.555 235.244 383.949 235.772 383.385 236.24H389.469V237.5H381.153ZM395.134 237.716C394.342 237.716 393.664 237.56 393.1 237.248C392.536 236.936 392.086 236.522 391.75 236.006C391.426 235.478 391.228 234.896 391.156 234.26H392.56C392.68 234.944 392.968 235.472 393.424 235.844C393.88 236.216 394.456 236.402 395.152 236.402C396.112 236.402 396.91 235.958 397.546 235.07C398.182 234.17 398.524 232.772 398.572 230.876C398.284 231.44 397.822 231.932 397.186 232.352C396.562 232.76 395.806 232.964 394.918 232.964C394.21 232.964 393.538 232.796 392.902 232.46C392.266 232.124 391.75 231.656 391.354 231.056C390.958 230.444 390.76 229.73 390.76 228.914C390.76 228.206 390.934 227.528 391.282 226.88C391.642 226.232 392.146 225.704 392.794 225.296C393.442 224.888 394.216 224.684 395.116 224.684C396.028 224.684 396.796 224.858 397.42 225.206C398.044 225.542 398.542 225.998 398.914 226.574C399.298 227.15 399.574 227.798 399.742 228.518C399.922 229.226 400.012 229.952 400.012 230.696C400.012 232.088 399.82 233.312 399.436 234.368C399.052 235.412 398.494 236.234 397.762 236.834C397.042 237.422 396.166 237.716 395.134 237.716ZM395.224 231.65C395.788 231.65 396.292 231.524 396.736 231.272C397.18 231.008 397.534 230.66 397.798 230.228C398.062 229.796 398.194 229.328 398.194 228.824C398.194 228.284 398.062 227.804 397.798 227.384C397.534 226.952 397.18 226.616 396.736 226.376C396.292 226.136 395.788 226.016 395.224 226.016C394.66 226.016 394.156 226.136 393.712 226.376C393.268 226.616 392.92 226.952 392.668 227.384C392.416 227.804 392.29 228.29 392.29 228.842C392.29 229.694 392.566 230.378 393.118 230.894C393.682 231.398 394.384 231.65 395.224 231.65Z" fill="white"/>
<rect y="279.335" width="22" height="0.33" fill="#464649"/>
<rect x="22" y="279.335" width="35" height="0.33" fill="#464649"/>
<rect x="57" y="279.335" width="11.75" height="0.33" fill="#464649"/>
<rect x="68.75" y="279.335" width="11.75" height="0.33" fill="#464649"/>
<rect x="80.5" y="279.335" width="35" height="0.33" fill="#464649"/>
<rect x="115.5" y="279.335" width="11.75" height="0.33" fill="#464649"/>
<rect x="22" y="284" width="35" height="35" rx="17.5" fill="#263928"/>
<path d="M33.4748 307.716C32.6708 307.716 31.9448 307.572 31.2968 307.284C30.6488 306.984 30.1268 306.54 29.7308 305.952C29.3468 305.364 29.1428 304.632 29.1188 303.756H30.6488C30.6608 304.476 30.9128 305.1 31.4048 305.628C31.8968 306.144 32.5868 306.402 33.4748 306.402C34.3628 306.402 35.0288 306.156 35.4728 305.664C35.9288 305.172 36.1568 304.578 36.1568 303.882C36.1568 303.294 36.0128 302.814 35.7248 302.442C35.4488 302.07 35.0708 301.794 34.5908 301.614C34.1228 301.434 33.6068 301.344 33.0428 301.344H32.1068V300.066H33.0428C33.8588 300.066 34.4948 299.88 34.9508 299.508C35.4188 299.136 35.6528 298.614 35.6528 297.942C35.6528 297.378 35.4668 296.916 35.0948 296.556C34.7348 296.184 34.1948 295.998 33.4748 295.998C32.7788 295.998 32.2208 296.208 31.8008 296.628C31.3808 297.036 31.1468 297.552 31.0988 298.176H29.5688C29.6048 297.492 29.7848 296.886 30.1088 296.358C30.4448 295.83 30.9008 295.422 31.4768 295.134C32.0528 294.834 32.7188 294.684 33.4748 294.684C34.2908 294.684 34.9688 294.828 35.5088 295.116C36.0608 295.404 36.4748 295.788 36.7508 296.268C37.0388 296.748 37.1828 297.276 37.1828 297.852C37.1828 298.488 37.0088 299.07 36.6608 299.598C36.3128 300.114 35.7908 300.462 35.0948 300.642C35.8388 300.798 36.4568 301.152 36.9488 301.704C37.4408 302.256 37.6868 302.982 37.6868 303.882C37.6868 304.578 37.5248 305.22 37.2008 305.808C36.8888 306.384 36.4208 306.846 35.7968 307.194C35.1728 307.542 34.3988 307.716 33.4748 307.716ZM44.5468 307.716C43.4308 307.716 42.4648 307.446 41.6488 306.906C40.8448 306.354 40.2268 305.592 39.7948 304.62C39.3628 303.636 39.1468 302.496 39.1468 301.2C39.1468 299.904 39.3628 298.77 39.7948 297.798C40.2268 296.814 40.8448 296.052 41.6488 295.512C42.4648 294.96 43.4308 294.684 44.5468 294.684C45.6628 294.684 46.6228 294.96 47.4268 295.512C48.2308 296.052 48.8488 296.814 49.2808 297.798C49.7128 298.77 49.9288 299.904 49.9288 301.2C49.9288 302.496 49.7128 303.636 49.2808 304.62C48.8488 305.592 48.2308 306.354 47.4268 306.906C46.6228 307.446 45.6628 307.716 44.5468 307.716ZM44.5468 306.384C45.2788 306.384 45.9328 306.18 46.5088 305.772C47.0968 305.352 47.5528 304.758 47.8768 303.99C48.2128 303.21 48.3808 302.28 48.3808 301.2C48.3808 300.12 48.2128 299.196 47.8768 298.428C47.5528 297.66 47.0968 297.072 46.5088 296.664C45.9328 296.244 45.2788 296.034 44.5468 296.034C43.8028 296.034 43.1428 296.244 42.5668 296.664C41.9908 297.072 41.5348 297.66 41.1988 298.428C40.8628 299.196 40.6948 300.12 40.6948 301.2C40.6948 302.28 40.8628 303.21 41.1988 303.99C41.5348 304.758 41.9908 305.352 42.5668 305.772C43.1428 306.18 43.8028 306.384 44.5468 306.384Z" fill="white"/>
<g clip-path="url(#clip12_19_677)">
<rect x="80.5" y="284" width="35" height="35" rx="17.5" fill="#4CAF50"/>
<path d="M95.6486 307.716C94.8446 307.716 94.1186 307.572 93.4706 307.284C92.8226 306.984 92.3006 306.54 91.9046 305.952C91.5206 305.364 91.3166 304.632 91.2926 303.756H92.8226C92.8346 304.476 93.0866 305.1 93.5786 305.628C94.0706 306.144 94.7606 306.402 95.6486 306.402C96.5366 306.402 97.2026 306.156 97.6466 305.664C98.1026 305.172 98.3306 304.578 98.3306 303.882C98.3306 303.294 98.1866 302.814 97.8986 302.442C97.6226 302.07 97.2446 301.794 96.7646 301.614C96.2966 301.434 95.7806 301.344 95.2166 301.344H94.2806V300.066H95.2166C96.0326 300.066 96.6686 299.88 97.1246 299.508C97.5926 299.136 97.8266 298.614 97.8266 297.942C97.8266 297.378 97.6406 296.916 97.2686 296.556C96.9086 296.184 96.3686 295.998 95.6486 295.998C94.9526 295.998 94.3946 296.208 93.9746 296.628C93.5546 297.036 93.3206 297.552 93.2726 298.176H91.7426C91.7786 297.492 91.9586 296.886 92.2826 296.358C92.6186 295.83 93.0746 295.422 93.6506 295.134C94.2266 294.834 94.8926 294.684 95.6486 294.684C96.4646 294.684 97.1426 294.828 97.6826 295.116C98.2346 295.404 98.6486 295.788 98.9246 296.268C99.2126 296.748 99.3566 297.276 99.3566 297.852C99.3566 298.488 99.1826 299.07 98.8346 299.598C98.4866 300.114 97.9646 300.462 97.2686 300.642C98.0126 300.798 98.6306 301.152 99.1226 301.704C99.6146 302.256 99.8606 302.982 99.8606 303.882C99.8606 304.578 99.6986 305.22 99.3746 305.808C99.0626 306.384 98.5946 306.846 97.9706 307.194C97.3466 307.542 96.5726 307.716 95.6486 307.716ZM102.75 307.5V296.592L100.716 297.042V295.998L103.254 294.9H104.28V307.5H102.75Z" fill="white"/>
</g>
<path opacity="0.01" d="M151.051 307.799C150.114 307.799 149.311 307.529 148.643 306.99C147.975 306.451 147.462 305.687 147.105 304.696C146.747 303.7 146.569 302.522 146.569 301.163V301.146C146.569 299.786 146.747 298.611 147.105 297.621C147.462 296.631 147.975 295.866 148.643 295.327C149.311 294.788 150.114 294.519 151.051 294.519C151.989 294.519 152.791 294.788 153.459 295.327C154.133 295.866 154.649 296.631 155.006 297.621C155.369 298.611 155.551 299.786 155.551 301.146V301.163C155.551 302.522 155.369 303.7 155.006 304.696C154.649 305.687 154.133 306.451 153.459 306.99C152.791 307.529 151.989 307.799 151.051 307.799ZM151.051 306.419C151.66 306.419 152.182 306.205 152.616 305.777C153.049 305.35 153.38 304.743 153.609 303.958C153.843 303.173 153.96 302.241 153.96 301.163V301.146C153.96 300.067 153.843 299.139 153.609 298.359C153.38 297.574 153.049 296.971 152.616 296.549C152.182 296.121 151.66 295.907 151.051 295.907C150.448 295.907 149.929 296.121 149.495 296.549C149.062 296.971 148.731 297.574 148.502 298.359C148.274 299.139 148.159 300.067 148.159 301.146V301.163C148.159 302.241 148.274 303.173 148.502 303.958C148.731 304.743 149.062 305.35 149.495 305.777C149.929 306.205 150.448 306.419 151.051 306.419ZM161.931 307.799C160.994 307.799 160.191 307.529 159.523 306.99C158.855 306.451 158.343 305.687 157.985 304.696C157.628 303.7 157.449 302.522 157.449 301.163V301.146C157.449 299.786 157.628 298.611 157.985 297.621C158.343 296.631 158.855 295.866 159.523 295.327C160.191 294.788 160.994 294.519 161.931 294.519C162.869 294.519 163.672 294.788 164.34 295.327C165.013 295.866 165.529 296.631 165.886 297.621C166.25 298.611 166.431 299.786 166.431 301.146V301.163C166.431 302.522 166.25 303.7 165.886 304.696C165.529 305.687 165.013 306.451 164.34 306.99C163.672 307.529 162.869 307.799 161.931 307.799ZM161.931 306.419C162.541 306.419 163.062 306.205 163.496 305.777C163.929 305.35 164.26 304.743 164.489 303.958C164.723 303.173 164.841 302.241 164.841 301.163V301.146C164.841 300.067 164.723 299.139 164.489 298.359C164.26 297.574 163.929 296.971 163.496 296.549C163.062 296.121 162.541 295.907 161.931 295.907C161.328 295.907 160.809 296.121 160.376 296.549C159.942 296.971 159.611 297.574 159.383 298.359C159.154 299.139 159.04 300.067 159.04 301.146V301.163C159.04 302.241 159.154 303.173 159.383 303.958C159.611 304.743 159.942 305.35 160.376 305.777C160.809 306.205 161.328 306.419 161.931 306.419Z" fill="#8E8E93"/>
<g clip-path="url(#clip13_19_677)">
<path opacity="0.01" d="M209.551 307.799C208.614 307.799 207.811 307.529 207.143 306.99C206.475 306.451 205.962 305.687 205.605 304.696C205.247 303.7 205.069 302.522 205.069 301.163V301.146C205.069 299.786 205.247 298.611 205.605 297.621C205.962 296.631 206.475 295.866 207.143 295.327C207.811 294.788 208.614 294.519 209.551 294.519C210.489 294.519 211.291 294.788 211.959 295.327C212.633 295.866 213.149 296.631 213.506 297.621C213.869 298.611 214.051 299.786 214.051 301.146V301.163C214.051 302.522 213.869 303.7 213.506 304.696C213.149 305.687 212.633 306.451 211.959 306.99C211.291 307.529 210.489 307.799 209.551 307.799ZM209.551 306.419C210.16 306.419 210.682 306.205 211.116 305.777C211.549 305.35 211.88 304.743 212.109 303.958C212.343 303.173 212.46 302.241 212.46 301.163V301.146C212.46 300.067 212.343 299.139 212.109 298.359C211.88 297.574 211.549 296.971 211.116 296.549C210.682 296.121 210.16 295.907 209.551 295.907C208.948 295.907 208.429 296.121 207.995 296.549C207.562 296.971 207.231 297.574 207.002 298.359C206.774 299.139 206.659 300.067 206.659 301.146V301.163C206.659 302.241 206.774 303.173 207.002 303.958C207.231 304.743 207.562 305.35 207.995 305.777C208.429 306.205 208.948 306.419 209.551 306.419ZM220.431 307.799C219.494 307.799 218.691 307.529 218.023 306.99C217.355 306.451 216.843 305.687 216.485 304.696C216.128 303.7 215.949 302.522 215.949 301.163V301.146C215.949 299.786 216.128 298.611 216.485 297.621C216.843 296.631 217.355 295.866 218.023 295.327C218.691 294.788 219.494 294.519 220.431 294.519C221.369 294.519 222.172 294.788 222.84 295.327C223.513 295.866 224.029 296.631 224.386 297.621C224.75 298.611 224.931 299.786 224.931 301.146V301.163C224.931 302.522 224.75 303.7 224.386 304.696C224.029 305.687 223.513 306.451 222.84 306.99C222.172 307.529 221.369 307.799 220.431 307.799ZM220.431 306.419C221.041 306.419 221.562 306.205 221.996 305.777C222.429 305.35 222.76 304.743 222.989 303.958C223.223 303.173 223.341 302.241 223.341 301.163V301.146C223.341 300.067 223.223 299.139 222.989 298.359C222.76 297.574 222.429 296.971 221.996 296.549C221.562 296.121 221.041 295.907 220.431 295.907C219.828 295.907 219.309 296.121 218.876 296.549C218.442 296.971 218.111 297.574 217.883 298.359C217.654 299.139 217.54 300.067 217.54 301.146V301.163C217.54 302.241 217.654 303.173 217.883 303.958C218.111 304.743 218.442 305.35 218.876 305.777C219.309 306.205 219.828 306.419 220.431 306.419Z" fill="#8E8E93"/>
</g>
<path opacity="0.01" d="M268.051 307.799C267.114 307.799 266.311 307.529 265.643 306.99C264.975 306.451 264.462 305.687 264.105 304.696C263.747 303.7 263.569 302.522 263.569 301.163V301.146C263.569 299.786 263.747 298.611 264.105 297.621C264.462 296.631 264.975 295.866 265.643 295.327C266.311 294.788 267.114 294.519 268.051 294.519C268.989 294.519 269.791 294.788 270.459 295.327C271.133 295.866 271.649 296.631 272.006 297.621C272.369 298.611 272.551 299.786 272.551 301.146V301.163C272.551 302.522 272.369 303.7 272.006 304.696C271.649 305.687 271.133 306.451 270.459 306.99C269.791 307.529 268.989 307.799 268.051 307.799ZM268.051 306.419C268.66 306.419 269.182 306.205 269.616 305.777C270.049 305.35 270.38 304.743 270.609 303.958C270.843 303.173 270.96 302.241 270.96 301.163V301.146C270.96 300.067 270.843 299.139 270.609 298.359C270.38 297.574 270.049 296.971 269.616 296.549C269.182 296.121 268.66 295.907 268.051 295.907C267.448 295.907 266.929 296.121 266.495 296.549C266.062 296.971 265.731 297.574 265.502 298.359C265.274 299.139 265.159 300.067 265.159 301.146V301.163C265.159 302.241 265.274 303.173 265.502 303.958C265.731 304.743 266.062 305.35 266.495 305.777C266.929 306.205 267.448 306.419 268.051 306.419ZM278.931 307.799C277.994 307.799 277.191 307.529 276.523 306.99C275.855 306.451 275.343 305.687 274.985 304.696C274.628 303.7 274.449 302.522 274.449 301.163V301.146C274.449 299.786 274.628 298.611 274.985 297.621C275.343 296.631 275.855 295.866 276.523 295.327C277.191 294.788 277.994 294.519 278.931 294.519C279.869 294.519 280.672 294.788 281.34 295.327C282.013 295.866 282.529 296.631 282.886 297.621C283.25 298.611 283.431 299.786 283.431 301.146V301.163C283.431 302.522 283.25 303.7 282.886 304.696C282.529 305.687 282.013 306.451 281.34 306.99C280.672 307.529 279.869 307.799 278.931 307.799ZM278.931 306.419C279.541 306.419 280.062 306.205 280.496 305.777C280.929 305.35 281.26 304.743 281.489 303.958C281.723 303.173 281.841 302.241 281.841 301.163V301.146C281.841 300.067 281.723 299.139 281.489 298.359C281.26 297.574 280.929 296.971 280.496 296.549C280.062 296.121 279.541 295.907 278.931 295.907C278.328 295.907 277.809 296.121 277.376 296.549C276.942 296.971 276.611 297.574 276.383 298.359C276.154 299.139 276.04 300.067 276.04 301.146V301.163C276.04 302.241 276.154 303.173 276.383 303.958C276.611 304.743 276.942 305.35 277.376 305.777C277.809 306.205 278.328 306.419 278.931 306.419Z" fill="#8E8E93"/>
<g clip-path="url(#clip14_19_677)">
<path opacity="0.01" d="M326.551 307.799C325.614 307.799 324.811 307.529 324.143 306.99C323.475 306.451 322.962 305.687 322.605 304.696C322.247 303.7 322.069 302.522 322.069 301.163V301.146C322.069 299.786 322.247 298.611 322.605 297.621C322.962 296.631 323.475 295.866 324.143 295.327C324.811 294.788 325.614 294.519 326.551 294.519C327.489 294.519 328.291 294.788 328.959 295.327C329.633 295.866 330.149 296.631 330.506 297.621C330.869 298.611 331.051 299.786 331.051 301.146V301.163C331.051 302.522 330.869 303.7 330.506 304.696C330.149 305.687 329.633 306.451 328.959 306.99C328.291 307.529 327.489 307.799 326.551 307.799ZM326.551 306.419C327.16 306.419 327.682 306.205 328.116 305.777C328.549 305.35 328.88 304.743 329.109 303.958C329.343 303.173 329.46 302.241 329.46 301.163V301.146C329.46 300.067 329.343 299.139 329.109 298.359C328.88 297.574 328.549 296.971 328.116 296.549C327.682 296.121 327.16 295.907 326.551 295.907C325.948 295.907 325.429 296.121 324.995 296.549C324.562 296.971 324.231 297.574 324.002 298.359C323.774 299.139 323.659 300.067 323.659 301.146V301.163C323.659 302.241 323.774 303.173 324.002 303.958C324.231 304.743 324.562 305.35 324.995 305.777C325.429 306.205 325.948 306.419 326.551 306.419ZM337.431 307.799C336.494 307.799 335.691 307.529 335.023 306.99C334.355 306.451 333.843 305.687 333.485 304.696C333.128 303.7 332.949 302.522 332.949 301.163V301.146C332.949 299.786 333.128 298.611 333.485 297.621C333.843 296.631 334.355 295.866 335.023 295.327C335.691 294.788 336.494 294.519 337.431 294.519C338.369 294.519 339.172 294.788 339.84 295.327C340.513 295.866 341.029 296.631 341.386 297.621C341.75 298.611 341.931 299.786 341.931 301.146V301.163C341.931 302.522 341.75 303.7 341.386 304.696C341.029 305.687 340.513 306.451 339.84 306.99C339.172 307.529 338.369 307.799 337.431 307.799ZM337.431 306.419C338.041 306.419 338.562 306.205 338.996 305.777C339.429 305.35 339.76 304.743 339.989 303.958C340.223 303.173 340.341 302.241 340.341 301.163V301.146C340.341 300.067 340.223 299.139 339.989 298.359C339.76 297.574 339.429 296.971 338.996 296.549C338.562 296.121 338.041 295.907 337.431 295.907C336.828 295.907 336.309 296.121 335.876 296.549C335.442 296.971 335.111 297.574 334.883 298.359C334.654 299.139 334.54 300.067 334.54 301.146V301.163C334.54 302.241 334.654 303.173 334.883 303.958C335.111 304.743 335.442 305.35 335.876 305.777C336.309 306.205 336.828 306.419 337.431 306.419Z" fill="#8E8E93"/>
</g>
<path opacity="0.01" d="M385.051 307.799C384.114 307.799 383.311 307.529 382.643 306.99C381.975 306.451 381.462 305.687 381.105 304.696C380.747 303.7 380.569 302.522 380.569 301.163V301.146C380.569 299.786 380.747 298.611 381.105 297.621C381.462 296.631 381.975 295.866 382.643 295.327C383.311 294.788 384.114 294.519 385.051 294.519C385.989 294.519 386.791 294.788 387.459 295.327C388.133 295.866 388.649 296.631 389.006 297.621C389.369 298.611 389.551 299.786 389.551 301.146V301.163C389.551 302.522 389.369 303.7 389.006 304.696C388.649 305.687 388.133 306.451 387.459 306.99C386.791 307.529 385.989 307.799 385.051 307.799ZM385.051 306.419C385.66 306.419 386.182 306.205 386.616 305.777C387.049 305.35 387.38 304.743 387.609 303.958C387.843 303.173 387.96 302.241 387.96 301.163V301.146C387.96 300.067 387.843 299.139 387.609 298.359C387.38 297.574 387.049 296.971 386.616 296.549C386.182 296.121 385.66 295.907 385.051 295.907C384.448 295.907 383.929 296.121 383.495 296.549C383.062 296.971 382.731 297.574 382.502 298.359C382.274 299.139 382.159 300.067 382.159 301.146V301.163C382.159 302.241 382.274 303.173 382.502 303.958C382.731 304.743 383.062 305.35 383.495 305.777C383.929 306.205 384.448 306.419 385.051 306.419ZM395.931 307.799C394.994 307.799 394.191 307.529 393.523 306.99C392.855 306.451 392.343 305.687 391.985 304.696C391.628 303.7 391.449 302.522 391.449 301.163V301.146C391.449 299.786 391.628 298.611 391.985 297.621C392.343 296.631 392.855 295.866 393.523 295.327C394.191 294.788 394.994 294.519 395.931 294.519C396.869 294.519 397.672 294.788 398.34 295.327C399.013 295.866 399.529 296.631 399.886 297.621C400.25 298.611 400.431 299.786 400.431 301.146V301.163C400.431 302.522 400.25 303.7 399.886 304.696C399.529 305.687 399.013 306.451 398.34 306.99C397.672 307.529 396.869 307.799 395.931 307.799ZM395.931 306.419C396.541 306.419 397.062 306.205 397.496 305.777C397.929 305.35 398.26 304.743 398.489 303.958C398.723 303.173 398.841 302.241 398.841 301.163V301.146C398.841 300.067 398.723 299.139 398.489 298.359C398.26 297.574 397.929 296.971 397.496 296.549C397.062 296.121 396.541 295.907 395.931 295.907C395.328 295.907 394.809 296.121 394.376 296.549C393.942 296.971 393.611 297.574 393.383 298.359C393.154 299.139 393.04 300.067 393.04 301.146V301.163C393.04 302.241 393.154 303.173 393.383 303.958C393.611 304.743 393.942 305.35 394.376 305.777C394.809 306.205 395.328 306.419 395.931 306.419Z" fill="#8E8E93"/>
<defs>
<clipPath id="clip0_19_677">
<rect width="35" height="69" fill="white" transform="translate(80.5)"/>
</clipPath>
<clipPath id="clip1_19_677">
<rect width="35" height="69" fill="white" transform="translate(197.5)"/>
</clipPath>
<clipPath id="clip2_19_677">
<rect width="35" height="69" fill="white" transform="translate(314.5)"/>
</clipPath>
<clipPath id="clip3_19_677">
<rect width="35" height="69" fill="white" transform="translate(80.5 70)"/>
</clipPath>
<clipPath id="clip4_19_677">
<rect width="35" height="69" fill="white" transform="translate(197.5 70)"/>
</clipPath>
<clipPath id="clip5_19_677">
<rect width="35" height="69" fill="white" transform="translate(314.5 70)"/>
</clipPath>
<clipPath id="clip6_19_677">
<rect width="35" height="69" fill="white" transform="translate(80.5 140)"/>
</clipPath>
<clipPath id="clip7_19_677">
<rect width="35" height="69" fill="white" transform="translate(197.5 140)"/>
</clipPath>
<clipPath id="clip8_19_677">
<rect width="35" height="69" fill="white" transform="translate(314.5 140)"/>
</clipPath>
<clipPath id="clip9_19_677">
<rect width="35" height="69" fill="white" transform="translate(80.5 210)"/>
</clipPath>
<clipPath id="clip10_19_677">
<rect width="35" height="69" fill="white" transform="translate(197.5 210)"/>
</clipPath>
<clipPath id="clip11_19_677">
<rect width="35" height="69" fill="white" transform="translate(314.5 210)"/>
</clipPath>
<clipPath id="clip12_19_677">
<rect width="35" height="69" fill="white" transform="translate(80.5 280)"/>
</clipPath>
<clipPath id="clip13_19_677">
<rect width="35" height="69" fill="white" transform="translate(197.5 280)"/>
</clipPath>
<clipPath id="clip14_19_677">
<rect width="35" height="69" fill="white" transform="translate(314.5 280)"/>
</clipPath>
</defs>
</svg>
