<svg width="224" height="231" viewBox="0 0 224 231" fill="none" xmlns="http://www.w3.org/2000/svg">
<circle cx="198.362" cy="57.1192" r="10.6987" transform="rotate(56.2877 198.362 57.1192)" fill="white"/>
<circle cx="27.8438" cy="170.893" r="10.0792" transform="rotate(56.2877 27.8438 170.893)" fill="white"/>
<circle cx="204.869" cy="157.22" r="10.0792" transform="rotate(56.2877 204.869 157.22)" fill="white"/>
<circle cx="119.269" cy="213.706" r="12.0781" transform="rotate(56.2877 119.269 213.706)" fill="white"/>
<circle cx="107.043" cy="15.5389" r="10.5123" transform="rotate(56.2877 107.043 15.5389)" fill="white"/>
<circle cx="21.8136" cy="68.4784" r="13.3108" transform="rotate(56.2877 21.8136 68.4784)" fill="white"/>
<circle cx="154.756" cy="86.2147" r="15.1442" transform="rotate(56.2877 154.756 86.2147)" fill="white"/>
<circle cx="72.2536" cy="141.262" r="15.1442" transform="rotate(56.2877 72.2536 141.262)" fill="white"/>
<circle cx="157.764" cy="133.945" r="15.1442" transform="rotate(56.2877 157.764 133.945)" fill="white"/>
<circle cx="115.394" cy="162.216" r="15.1442" transform="rotate(56.2877 115.394 162.216)" fill="white"/>
<circle cx="111.319" cy="64.3341" r="15.1442" transform="rotate(56.2877 111.319 64.3341)" fill="white"/>
<circle cx="68.9479" cy="92.6049" r="15.1442" transform="rotate(56.2877 68.9479 92.6049)" fill="white"/>
<circle cx="152.678" cy="36.7515" r="19.3935" transform="rotate(56.2877 152.678 36.7515)" fill="white"/>
<circle cx="27.0765" cy="120.557" r="19.3935" transform="rotate(56.2877 27.0765 120.557)" fill="white"/>
<circle cx="199.112" cy="106.343" r="17.8152" transform="rotate(56.2877 199.112 106.343)" fill="white"/>
<circle cx="73.5098" cy="190.148" r="21.7102" transform="rotate(56.2877 73.5098 190.148)" fill="white"/>
<circle cx="159.113" cy="182.32" r="20.973" transform="rotate(56.2877 159.113 182.32)" fill="white"/>
<circle cx="67.7028" cy="45.3365" r="17.7333" transform="rotate(56.2877 67.7028 45.3365)" fill="white"/>
</svg>
